<?xml version="1.0" encoding="UTF-8"?>
<!--Generator: Apple Native CoreSVG 341-->
<!DOCTYPE svg
PUBLIC "-//W3C//DTD SVG 1.1//EN"
       "http://www.w3.org/Graphics/SVG/1.1/DTD/svg11.dtd">
<svg version="1.1" xmlns="http://www.w3.org/2000/svg" xmlns:xlink="http://www.w3.org/1999/xlink" viewBox="0 0 28 28">
 <g>
  <rect height="28" opacity="0" width="28" x="0" y="0"/>
  <g transform="translate(0, 2.077)">
   <path d="M14.1716 3.05043L19.4277 3.05528L19.6941 3.10862C20.634 3.29006 21.3172 3.64862 21.959 4.29785C22.3004 4.64186 22.5161 4.93968 22.722 5.35387C22.9739 5.86018 23.0926 6.27693 23.1459 6.85572C23.169 7.10755 23.1764 11.4932 23.1673 14.4197C20.6742 14.5315 18.6737 16.6144 18.6737 19.1337C18.6737 19.7562 18.797 20.3525 19.023 20.8978C17.5843 20.9195 9.69026 20.92 9.06041 20.895C8.47192 20.8685 8.21749 20.8274 7.801 20.6891C6.40327 20.2218 5.3447 19.0517 5.02978 17.6349C4.92821 17.177 4.92821 17.0946 4.93536 11.8092C4.94506 6.23073 4.93536 6.61353 5.08797 6.08068C5.57004 4.42392 6.97747 3.25153 8.71181 3.06727C8.82563 3.05528 11.226 3.04788 14.1716 3.05043ZM11.066 8.2583C10.9668 8.33077 10.9522 8.43745 11.0081 8.72812C11.054 8.96801 11.4973 11.5938 11.9939 14.5707C12.1853 15.7285 12.2047 15.8229 12.2627 15.8834C12.3402 15.9633 12.4227 15.9852 12.5242 15.9513C12.585 15.9319 12.6552 15.8569 12.8175 15.6412C13.5223 14.711 14.094 13.9771 14.1182 13.9699C14.1351 13.9674 14.2537 14.1151 14.3821 14.2968C14.513 14.4811 14.806 14.8927 15.0339 15.2125C15.2615 15.5323 15.5619 15.9562 15.7022 16.1572C16.056 16.6562 16.1261 16.7263 16.2787 16.7263C16.3637 16.7263 16.3709 16.7215 16.8504 16.3752C17.4634 15.9345 17.4779 15.9222 17.4779 15.7964C17.4779 15.7043 17.4511 15.6558 17.2694 15.3916C17.0153 15.0259 16.756 14.6602 16.6059 14.4495C15.9638 13.5532 15.5399 12.9453 15.5399 12.9188C15.5399 12.8994 15.6563 12.8483 15.838 12.7853C16.4459 12.5796 17.6402 12.1532 17.7153 12.1144C17.9115 12.0128 17.9115 11.739 17.7153 11.6203C17.6716 11.5938 17.3082 11.3998 16.9086 11.1916C16.5089 10.9808 16.1164 10.7748 16.0366 10.7314C15.901 10.6562 15.5448 10.4699 13.2388 9.25383C12.7399 8.99225 12.1029 8.65539 11.8242 8.51018C11.2891 8.22665 11.1679 8.18557 11.066 8.2583ZM10.9839 5.88443C10.538 5.94976 10.0174 6.16311 9.65401 6.43183C9.45776 6.5773 9.14054 6.90165 8.99508 7.11015C8.7432 7.46361 8.57375 7.89974 8.50331 8.35757C8.37265 9.23444 8.63908 10.0677 9.25921 10.7192C9.59582 11.0729 9.93728 11.3079 10.3757 11.4799C10.6276 11.5815 10.71 11.5815 10.7925 11.4774C10.8603 11.3901 10.8555 11.274 10.7779 11.1941C10.7417 11.1602 10.7029 11.1311 10.6883 11.1311C10.6761 11.1311 10.5648 11.0826 10.4413 11.0244C9.2809 10.4747 8.71411 9.32172 9.02417 8.13963C9.0895 7.89234 9.27606 7.50495 9.43122 7.30155C9.78237 6.83888 10.2644 6.52626 10.8578 6.37849C11.1704 6.29862 11.7347 6.30117 12.0279 6.37849C13.0574 6.65947 13.7331 7.44447 13.8686 8.52217C13.8954 8.73552 13.9051 8.76436 13.9705 8.8177C14.0866 8.91697 14.2369 8.88813 14.3168 8.75237C14.375 8.65309 14.3533 8.40836 14.2537 8.03066C13.9728 6.95014 13.125 6.14601 12.023 5.90867C11.7757 5.85533 11.2671 5.84564 10.9839 5.88443ZM10.2667 7.24822C9.90589 7.54119 9.70964 7.85381 9.59097 8.32108C9.52309 8.58776 9.52794 9.04533 9.60067 9.29747C9.6928 9.62438 9.85995 9.90051 10.107 10.1452C10.3977 10.4334 10.5429 10.4867 10.6738 10.3583C10.7754 10.2565 10.7659 10.1792 10.6421 10.0603C10.3055 9.7456 10.2596 9.68971 10.1652 9.51056C10.032 9.25383 9.98577 9.06243 9.98577 8.78146C9.98832 8.51988 10.0343 8.31393 10.1432 8.09114C10.3928 7.57768 10.8723 7.27961 11.444 7.27961C11.7153 7.27961 11.8753 7.3184 12.1175 7.43706C12.4421 7.59707 12.6672 7.8561 12.8198 8.24605C12.907 8.47139 12.9675 8.53672 13.0839 8.53927C13.1832 8.53927 13.2873 8.4303 13.2873 8.32593C13.2873 8.21211 13.1809 7.92399 13.0693 7.73743C12.9433 7.52434 12.6478 7.23112 12.4324 7.1053C12.3354 7.04942 12.1659 6.97209 12.0521 6.93075C11.8727 6.87027 11.8048 6.85827 11.5313 6.85342C11.0032 6.84117 10.6253 6.95984 10.2667 7.24822Z" fill="black" fill-opacity="0.85"/>
   <path d="M23.3888 22.5133C25.2404 22.5133 26.7683 20.9854 26.7683 19.1337C26.7683 17.2696 25.2404 15.7439 23.3888 15.7439C21.5246 15.7439 19.9989 17.2696 19.9989 19.1337C19.9989 20.9854 21.5246 22.5133 23.3888 22.5133Z" fill="black" fill-opacity="0.85"/>
  </g>
 </g>
</svg>
