<?xml version="1.0" encoding="UTF-8"?>
<!--Generator: Apple Native CoreSVG 341-->
<!DOCTYPE svg
PUBLIC "-//W3C//DTD SVG 1.1//EN"
       "http://www.w3.org/Graphics/SVG/1.1/DTD/svg11.dtd">
<svg version="1.1" xmlns="http://www.w3.org/2000/svg" xmlns:xlink="http://www.w3.org/1999/xlink" viewBox="0 0 28 28">
 <g>
  <rect height="28" opacity="0" width="28" x="0" y="0"/>
  <path transform="translate(4.88, 5.068)" d="M3.77914 0.017363C2.0448 0.201617 0.637371 1.37401 0.155298 3.03076C0.00268827 3.56362 0.0123859 3.18082 0.00268827 8.75924C-0.00445733 14.0447-0.00445733 14.1271 0.0971123 14.5849C0.412029 16.0018 1.4706 17.1719 2.86833 17.6392C3.28482 17.7775 3.53925 17.8186 4.12774 17.8451C4.80377 17.8719 13.8483 17.8694 14.3013 17.8428C14.9069 17.804 15.3405 17.6854 15.8999 17.4067C17.0626 16.8279 17.8815 15.7742 18.1382 14.5242C18.1648 14.3984 18.1987 14.1417 18.2107 13.9551C18.2472 13.4973 18.2472 4.17636 18.2132 3.80581C18.1599 3.22701 18.0412 2.81027 17.7894 2.30395C17.5834 1.88977 17.3678 1.59195 17.0263 1.24794C16.3845 0.598709 15.7013 0.240153 14.7614 0.0587054L14.495 0.00536856L9.23889 0.000519762C6.29337-0.00203224 3.89296 0.00536856 3.77914 0.017363ZM7.09036 2.85876C8.19231 3.0961 9.04009 3.90023 9.32106 4.98075C9.42059 5.35844 9.44228 5.60318 9.3841 5.70245C9.30422 5.83822 9.15391 5.86706 9.03779 5.76778C8.97246 5.71445 8.96276 5.68561 8.93596 5.47226C8.80045 4.39455 8.12468 3.60956 7.09521 3.32858C6.80198 3.25126 6.23773 3.24871 5.92511 3.32858C5.33177 3.47634 4.8497 3.78896 4.49855 4.25164C4.34339 4.45504 4.15683 4.84243 4.0915 5.08972C3.78143 6.2718 4.34823 7.4248 5.50863 7.9745C5.63215 8.03268 5.74341 8.08117 5.75566 8.08117C5.77021 8.08117 5.809 8.11027 5.84524 8.14421C5.92282 8.22408 5.92767 8.3402 5.85978 8.42748C5.77735 8.5316 5.69492 8.5316 5.44304 8.43003C5.00461 8.25803 4.66315 8.02299 4.32654 7.66928C3.70641 7.01775 3.43998 6.18453 3.57064 5.30766C3.64107 4.84983 3.81053 4.41369 4.06241 4.06024C4.20787 3.85174 4.52509 3.52738 4.72134 3.38192C5.08474 3.11319 5.60535 2.89985 6.05118 2.83452C6.33446 2.79573 6.84307 2.80542 7.09036 2.85876ZM7.11945 3.88084C7.23327 3.92218 7.40272 3.9995 7.4997 4.05539C7.71509 4.18121 8.01061 4.47443 8.13668 4.68752C8.2482 4.87407 8.35462 5.16219 8.35462 5.27601C8.35462 5.38039 8.2505 5.48936 8.15122 5.48936C8.03485 5.48681 7.97437 5.42148 7.88709 5.19614C7.73448 4.80619 7.5094 4.54716 7.18478 4.38715C6.9426 4.26848 6.78259 4.22969 6.51131 4.22969C5.93966 4.22969 5.46014 4.52777 5.21055 5.04123C5.10158 5.26402 5.05565 5.46997 5.0531 5.73155C5.0531 6.01252 5.09929 6.20392 5.2325 6.46065C5.32693 6.6398 5.37286 6.69569 5.70947 7.01035C5.83324 7.12928 5.84269 7.2066 5.74112 7.30843C5.6102 7.43679 5.46499 7.38346 5.17432 7.09533C4.92728 6.8506 4.76013 6.57447 4.668 6.24756C4.59527 5.99542 4.59042 5.53785 4.6583 5.27117C4.77697 4.80389 4.97322 4.49127 5.33407 4.1983C5.69263 3.90993 6.07058 3.79126 6.59859 3.80351C6.87216 3.80836 6.94005 3.82035 7.11945 3.88084ZM6.89156 5.46027C7.17024 5.60548 7.80721 5.94234 8.30613 6.20392C10.6121 7.41995 10.9684 7.60625 11.1039 7.68153C11.1838 7.72491 11.5763 7.93086 11.9759 8.14165C12.3755 8.3499 12.739 8.54385 12.7826 8.57039C12.9788 8.68906 12.9788 8.96289 12.7826 9.06446C12.7076 9.10325 11.5132 9.52969 10.9053 9.73538C10.7236 9.79841 10.6073 9.84945 10.6073 9.86885C10.6073 9.89539 11.0312 10.5033 11.6732 11.3995C11.8233 11.6103 12.0826 11.976 12.3368 12.3417C12.5185 12.6059 12.5453 12.6544 12.5453 12.7465C12.5453 12.8723 12.5307 12.8845 11.9177 13.3253C11.4382 13.6716 11.4311 13.6764 11.3461 13.6764C11.1935 13.6764 11.1233 13.6063 10.7696 13.1073C10.6292 12.9062 10.3288 12.4824 10.1012 12.1626C9.87331 11.8428 9.58034 11.4312 9.44943 11.2469C9.32106 11.0652 9.20239 10.9175 9.18555 10.92C9.16131 10.9272 8.58966 11.6611 7.8848 12.5913C7.72249 12.807 7.65231 12.882 7.59157 12.9014C7.49 12.9353 7.40757 12.9134 7.32999 12.8335C7.27206 12.773 7.25267 12.6786 7.06127 11.5208C6.56465 8.54385 6.12136 5.9181 6.07543 5.67821C6.01954 5.38754 6.03409 5.28086 6.13336 5.20839C6.23518 5.13565 6.3564 5.17674 6.89156 5.46027Z" fill="black" fill-opacity="0.85"/>
 </g>
</svg>
